<svg xmlns="http://www.w3.org/2000/svg" width="100" height="100" viewBox="0 0 100 100"><defs><style>.a{fill:#2acba0;}</style></defs><path class="a" d="M79.706,28.418,51.412,3.242a2.2361,2.2361,0,0,0-2.822,0L20.295,28.418a2.1385,2.1385,0,0,0-.668,1.561V95.181a2.03,2.03,0,0,0,2.079,2.079H78.293a2.0306,2.0306,0,0,0,2.08-2.08V29.978A2.1369,2.1369,0,0,0,79.706,28.418ZM76.141,93.026H23.86l-.002-62.082L50.001,7.624l26.14,23.32Z"/><path class="a" d="M43.837,23.739A6.1635,6.1635,0,1,0,50,17.575,6.1472,6.1472,0,0,0,43.837,23.739Zm8.17,0a2.0055,2.0055,0,1,1-2.006-2.005A2.1008,2.1008,0,0,1,52.007,23.739Z"/><path class="a" d="M52.082,45.593l-.163-.017-.038-2.567a1.8718,1.8718,0,0,0-.546-1.269,1.8512,1.8512,0,0,0-1.263-.54l-1.153-.017a1.7141,1.7141,0,0,0-1.748,1.749l.047,2.759-.149.02a12.0667,12.0667,0,0,0-6.995,2.979,6.2781,6.2781,0,0,0-1.881,4.644c.074,4.384,2.813,7.049,9.162,8.917l.129.038.149,9.17-.206-.036a16.5782,16.5782,0,0,1-5.275-1.849,1.74,1.74,0,0,0-2.246.402l-.716.896a1.7507,1.7507,0,0,0-.338,1.431,1.8581,1.8581,0,0,0,.874,1.227,21.4771,21.4771,0,0,0,7.826,2.649l.158.023.042,2.659A1.8564,1.8564,0,0,0,49.56,80.67l1.147.018a1.7111,1.7111,0,0,0,1.753-1.744l-.048-2.633.165-.009a15.9354,15.9354,0,0,0,6.383-1.746,9.0226,9.0226,0,0,0,1.967-1.465l.001-.001a6.633,6.633,0,0,0,2.012-4.887c-.027-5.794-5.148-7.971-10.68-9.458l-.135-.037-.133-8.415.193.021a19.4643,19.4643,0,0,1,4.195.895,1.7244,1.7244,0,0,0,2.133-.886L59,49.292a1.7553,1.7553,0,0,0,.017-1.462,1.8957,1.8957,0,0,0-1.093-1.019A24.5538,24.5538,0,0,0,52.082,45.593Zm6.154,22.511a2.7143,2.7143,0,0,1-1.676,2.331,10.71,10.71,0,0,1-4.028,1.123l-.199.019-.129-8,.23.074C56.761,64.928,58.227,66.045,58.236,68.104ZM47.407,57.39l-.236-.081c-2.613-.876-4.243-1.836-4.277-3.894a1.9037,1.9037,0,0,1,.625-1.39,6.9286,6.9286,0,0,1,3.565-1.528l.214-.039Z"/></svg>