<svg width="10" height="11" viewBox="0 0 10 11" fill="none" xmlns="http://www.w3.org/2000/svg">
<path d="M1.11111 9.9C1.11111 10.1917 1.22817 10.4715 1.43655 10.6778C1.64492 10.8841 1.92754 11 2.22222 11H7.77778C8.07246 11 8.35508 10.8841 8.56345 10.6778C8.77183 10.4715 8.88889 10.1917 8.88889 9.9V3.3H10V2.2H7.77778V1.1C7.77778 0.808262 7.66071 0.528472 7.45234 0.322183C7.24397 0.115892 6.96135 0 6.66667 0H3.33333C3.03865 0 2.75603 0.115892 2.54766 0.322183C2.33929 0.528472 2.22222 0.808262 2.22222 1.1V2.2H0V3.3H1.11111V9.9ZM3.33333 1.1H6.66667V2.2H3.33333V1.1ZM7.77778 3.3V9.9H2.22222V3.3H7.77778Z" fill="#035257"/>
<path d="M3.33333 4.4H4.44444V8.8H3.33333V4.4ZM5.55556 4.4H6.66667V8.8H5.55556V4.4Z" fill="#035257"/>
</svg>
