<?xml version="1.0" encoding="utf-8"?>
<!-- Generator: Adobe Illustrator 16.0.0, SVG Export Plug-In . SVG Version: 6.00 Build 0)  -->
<!DOCTYPE svg PUBLIC "-//W3C//DTD SVG 1.1//EN" "http://www.w3.org/Graphics/SVG/1.1/DTD/svg11.dtd">
<svg version="1.1" id="Layer_1" xmlns="http://www.w3.org/2000/svg" xmlns:xlink="http://www.w3.org/1999/xlink" x="0px" y="0px"
	 width="100px" height="100px" viewBox="0 0 100 100" enable-background="new 0 0 100 100" xml:space="preserve">
<g transform="translate(0,-1020.3622)">
	<g transform="translate(-2.7640848e-5,-3.9608678)">
		<g transform="translate(-193.99997,107.96089)">
			<g transform="translate(244.50034,-99.51437)">
				<g transform="matrix(0.91141401,0,0,0.91115977,-166.65538,-67.310652)">
					<g transform="translate(130,170)">
						<g transform="matrix(1.0971962,0,0,1.0975024,290.39629,-279.94234)">
							<path fill="#2ACBA0" d="M-240.907,1187.255c-0.944,0-1.708,0.765-1.708,1.708v42.69h-18.784
								c-0.943,0-1.708,0.765-1.708,1.708v44.399c0,0.943,0.765,1.709,1.708,1.709h44.398h44.399c0.943,0,1.709-0.766,1.709-1.709
								v-44.399c0-0.943-0.766-1.708-1.709-1.708h-13.66h-5.158v-42.69c0-0.943-0.764-1.708-1.707-1.708h-15.229h-17.197H-240.907z
								 M-239.2,1190.671h11.941v15.369c0.002,0.943,0.769,1.706,1.712,1.703c0.383-0.001,0.756-0.131,1.056-0.369l3.208-2.562
								l3.202,2.562c0.623,0.496,1.505,0.496,2.128,0l3.209-2.562l3.201,2.562c0.736,0.589,1.811,0.47,2.4-0.266
								c0.244-0.303,0.375-0.68,0.375-1.068v-15.369h11.934v40.983h-22.046h-0.12h-13.661h-8.539V1190.671z M-223.844,1190.671
								h13.661v11.827l-1.5-1.201c-0.623-0.496-1.506-0.496-2.129,0l-3.201,2.562l-3.208-2.562c-0.623-0.496-1.505-0.496-2.128,0
								l-1.494,1.193V1190.671z M-259.692,1235.069h10.246v15.369c0,0.943,0.764,1.709,1.708,1.709c0.388,0,0.764-0.133,1.067-0.375
								l3.202-2.562l3.202,2.562c0.624,0.5,1.511,0.5,2.134,0l3.202-2.562l3.202,2.562c0.736,0.59,1.811,0.471,2.4-0.266
								c0.243-0.305,0.375-0.68,0.375-1.068v-15.369h10.245v40.984h-40.983V1235.069z M-246.031,1235.069h5.124h8.538v11.82
								l-1.494-1.193c-0.624-0.5-1.51-0.5-2.134,0l-3.202,2.561l-3.201-2.561c-0.624-0.5-1.511-0.5-2.135,0l-1.495,1.193V1235.069z
								 M-215.293,1235.069h10.246v15.369c0,0.943,0.764,1.709,1.707,1.709c0.389,0,0.766-0.133,1.068-0.375l3.201-2.562
								l3.201,2.562c0.625,0.5,1.512,0.5,2.135,0l3.203-2.562l3.201,2.562c0.736,0.59,1.811,0.471,2.4-0.266
								c0.242-0.305,0.375-0.68,0.375-1.068v-15.369h10.246v40.984h-40.984V1235.069z M-201.631,1235.069h8.504h5.156v11.82
								l-1.494-1.193c-0.623-0.5-1.51-0.5-2.135,0l-3.201,2.561l-3.203-2.561c-0.623-0.5-1.51-0.5-2.135,0l-1.492,1.193V1235.069z"
								/>
						</g>
					</g>
				</g>
			</g>
		</g>
	</g>
</g>
</svg>
