<svg width="19" height="19" viewBox="0 0 19 19" fill="none" xmlns="http://www.w3.org/2000/svg">
<g clip-path="url(#clip0_51_868)">
<path d="M9.049 17.1631V11.303C9.049 10.5561 8.44357 9.95068 7.69668 9.95068H1.8367C1.08981 9.95068 0.484375 10.5561 0.484375 11.303V17.1631C0.484375 17.91 1.08981 18.5154 1.8367 18.5154H7.69678C8.44367 18.5154 9.049 17.91 9.049 17.1631ZM1.38592 17.1631V11.303C1.38592 11.054 1.5877 10.8522 1.8367 10.8522H7.69678C7.94577 10.8522 8.14755 11.054 8.14755 11.303V17.1631C8.14755 17.4121 7.94577 17.6139 7.69678 17.6139H1.8367C1.5877 17.6139 1.38592 17.4121 1.38592 17.1631Z" fill="white"/>
<path d="M17.1631 9.95068H11.303C10.5561 9.95068 9.95068 10.5561 9.95068 11.303V17.1631C9.95068 17.91 10.5561 18.5154 11.303 18.5154H17.1631C17.91 18.5154 18.5154 17.91 18.5154 17.1631V11.303C18.5154 10.5561 17.91 9.95068 17.1631 9.95068ZM17.6139 17.163C17.6139 17.412 17.4121 17.6138 17.1631 17.6138H11.303C11.054 17.6138 10.8522 17.412 10.8522 17.163V11.3029C10.8522 11.0539 11.054 10.8521 11.303 10.8521H17.1631C17.4121 10.8521 17.6139 11.0539 17.6139 11.3029V17.163Z" fill="white"/>
<path d="M1.8367 9.049H7.69678C8.44367 9.049 9.0491 8.44357 9.0491 7.69668V1.8367C9.0491 1.08981 8.44367 0.484375 7.69678 0.484375H1.8367C1.08981 0.484375 0.484375 1.08981 0.484375 1.8367V7.69678C0.484375 8.44367 1.08981 9.049 1.8367 9.049ZM1.38592 1.8367C1.38592 1.5877 1.5877 1.38592 1.8367 1.38592H7.69678C7.94577 1.38592 8.14755 1.5877 8.14755 1.8367V7.69678C8.14755 7.94577 7.94577 8.14755 7.69678 8.14755H1.8367C1.5877 8.14755 1.38592 7.94577 1.38592 7.69678V1.8367Z" fill="white"/>
<path d="M18.0645 4.31591H14.6838V0.93515C14.6838 0.686155 14.482 0.484375 14.233 0.484375C13.984 0.484375 13.7822 0.686155 13.7822 0.93515V4.31591H10.4015C10.1525 4.31591 9.95068 4.51769 9.95068 4.76669C9.95068 5.01568 10.1525 5.21746 10.4015 5.21746H13.7822V8.59823C13.7822 8.84722 13.984 9.049 14.233 9.049C14.482 9.049 14.6838 8.84722 14.6838 8.59823V5.21746H18.0645C18.3135 5.21746 18.5153 5.01568 18.5153 4.76669C18.5153 4.51769 18.3135 4.31591 18.0645 4.31591Z" fill="white"/>
</g>
<defs>
<clipPath id="clip0_51_868">
<rect width="19" height="19" fill="white"/>
</clipPath>
</defs>
</svg>
