<svg width="23" height="18" viewBox="0 0 23 18" fill="none" xmlns="http://www.w3.org/2000/svg">
<path d="M20.6999 9H9.1999C8.8949 9 8.6024 9.11853 8.38673 9.3295C8.17106 9.54048 8.0499 9.82663 8.0499 10.125V16.875C8.0499 17.1734 8.17106 17.4595 8.38673 17.6705C8.6024 17.8815 8.8949 18 9.1999 18H20.6999C21.0049 18 21.2974 17.8815 21.5131 17.6705C21.7287 17.4595 21.8499 17.1734 21.8499 16.875V10.125C21.8499 9.82663 21.7287 9.54048 21.5131 9.3295C21.2974 9.11853 21.0049 9 20.6999 9ZM20.6999 16.875H9.1999V10.125H20.6999V16.875ZM14.496 15.7215C14.9831 15.7841 15.4782 15.7443 15.9483 15.6048C16.4184 15.4653 16.8527 15.2293 17.2222 14.9126C17.5917 14.5958 17.8878 14.2057 18.0909 13.7681C18.294 13.3305 18.3993 12.8556 18.3999 12.375V11.5312C18.3999 11.4567 18.3696 11.3851 18.3157 11.3324C18.2618 11.2796 18.1887 11.25 18.1124 11.25H17.5374C17.4612 11.25 17.388 11.2796 17.3341 11.3324C17.2802 11.3851 17.2499 11.4567 17.2499 11.5312V12.375C17.2492 12.9724 17.006 13.545 16.5737 13.967C16.1415 14.3889 15.5556 14.6256 14.9449 14.625C14.87 14.625 14.7952 14.6213 14.7206 14.614C14.1416 14.5422 13.61 14.2637 13.2279 13.8321C12.8458 13.4005 12.64 12.8461 12.6499 12.2752V11.5312C12.6499 11.4567 12.6196 11.3851 12.5657 11.3324C12.5118 11.2796 12.4387 11.25 12.3624 11.25H11.7874C11.7112 11.25 11.638 11.2796 11.5841 11.3324C11.5302 11.3851 11.4999 11.4567 11.4999 11.5312V12.2575C11.4876 13.0915 11.7842 13.9016 12.3349 14.5383C12.8857 15.175 13.6533 15.5953 14.496 15.7215ZM2.2999 6.75H16.0999V7.875H17.2499V6.75C17.2499 6.45163 17.1287 6.16548 16.9131 5.9545C16.6974 5.74353 16.4049 5.625 16.0999 5.625H12.6499V3.375C12.6499 2.47989 12.2864 1.62145 11.6394 0.988515C10.9924 0.355579 10.1149 0 9.1999 0C8.28491 0 7.40738 0.355579 6.76038 0.988515C6.11338 1.62145 5.7499 2.47989 5.7499 3.375V5.625H2.2999C1.9949 5.625 1.7024 5.74353 1.48673 5.9545C1.27106 6.16548 1.1499 6.45163 1.1499 6.75V15.75C1.1499 16.0484 1.27106 16.3345 1.48673 16.5455C1.7024 16.7565 1.9949 16.875 2.2999 16.875H6.8999V15.75H2.2999V6.75ZM6.8999 3.375C6.8999 2.77826 7.14222 2.20597 7.57356 1.78401C8.00489 1.36205 8.5899 1.125 9.1999 1.125C9.8099 1.125 10.3949 1.36205 10.8262 1.78401C11.2576 2.20597 11.4999 2.77826 11.4999 3.375V5.625H6.8999V3.375Z" fill="white"/>
</svg>
