<svg width="22" height="17" viewBox="0 0 22 17" fill="none" xmlns="http://www.w3.org/2000/svg">
<g clip-path="url(#clip0_51_817)">
<path d="M5.32088 10.6058C5.3208 10.8401 5.22972 11.0648 5.06768 11.2305C4.90563 11.3961 4.68589 11.4891 4.45679 11.4891C4.22768 11.489 4.00797 11.3959 3.84599 11.2302C3.684 11.0645 3.59299 10.8398 3.59299 10.6055C3.59299 10.3712 3.684 10.1465 3.84599 9.98078C4.00797 9.81509 4.22768 9.72198 4.45679 9.72194C4.68589 9.7219 4.90563 9.81493 5.06768 9.98057C5.22972 10.1462 5.3208 10.3715 5.32088 10.6058ZM11.37 4.41899C11.5409 4.41899 11.708 4.36715 11.8501 4.27002C11.9923 4.1729 12.103 4.03485 12.1684 3.87334C12.2339 3.71183 12.251 3.53411 12.2176 3.36265C12.1843 3.19119 12.1019 3.0337 11.9811 2.91009C11.8602 2.78648 11.7062 2.70231 11.5386 2.66821C11.3709 2.63412 11.1971 2.65163 11.0392 2.71854C10.8813 2.78545 10.7463 2.89875 10.6514 3.04411C10.5564 3.18948 10.5057 3.36037 10.5058 3.53519C10.5057 3.76949 10.5966 3.99422 10.7586 4.15996C10.9205 4.32569 11.1402 4.41887 11.3693 4.41899H11.37ZM6.47287 4.71359C6.30194 4.71359 6.13484 4.76543 5.99272 4.86255C5.85059 4.95968 5.73982 5.09772 5.67441 5.25924C5.609 5.42075 5.59189 5.59847 5.62525 5.76993C5.6586 5.94138 5.74092 6.09887 5.86179 6.22248C5.98266 6.34609 6.13666 6.43027 6.30431 6.46436C6.47196 6.49846 6.64573 6.48095 6.80365 6.41404C6.96156 6.34713 7.09653 6.23383 7.19149 6.08846C7.28644 5.9431 7.33712 5.77221 7.3371 5.59739C7.33713 5.48135 7.31481 5.36644 7.27142 5.25922C7.22802 5.15201 7.1644 5.05458 7.08419 4.97251C7.00398 4.89044 6.90875 4.82534 6.80393 4.78091C6.69911 4.73648 6.58633 4.71361 6.47287 4.71359ZM16.6295 5.13929C16.6883 5.18788 16.7372 5.24784 16.7734 5.31574C16.8095 5.38365 16.8322 5.45818 16.8402 5.53507C16.8482 5.61195 16.8413 5.6897 16.8199 5.76386C16.7985 5.83802 16.7631 5.90715 16.7156 5.96729L16.7153 5.96811L13.2173 10.3873C13.5526 10.8507 13.7111 11.4233 13.663 11.9977C13.6149 12.5722 13.3635 13.1089 12.956 13.5073C12.5485 13.9056 12.0129 14.1383 11.4497 14.1615C10.8864 14.1848 10.3342 13.9971 9.89668 13.6336C9.45912 13.2702 9.16625 12.7559 9.07302 12.1873C8.9798 11.6187 9.09261 11.0349 9.3903 10.5453C9.688 10.0558 10.1501 9.69408 10.69 9.52816C11.2298 9.36223 11.8103 9.40345 12.3226 9.64409L15.8191 5.22696C15.9152 5.10548 16.0545 5.028 16.2065 5.01156C16.3584 4.99512 16.5107 5.04106 16.6295 5.13929ZM12.5229 11.7843C12.5229 11.5512 12.4553 11.3234 12.3287 11.1295C12.2021 10.9357 12.0222 10.7847 11.8116 10.6955C11.6011 10.6063 11.3694 10.5829 11.1459 10.6284C10.9223 10.6738 10.717 10.7861 10.5558 10.9509C10.3947 11.1157 10.2849 11.3256 10.2404 11.5542C10.196 11.7828 10.2188 12.0198 10.306 12.2351C10.3932 12.4505 10.5409 12.6345 10.7303 12.764C10.9198 12.8935 11.1426 12.9627 11.3705 12.9627C11.676 12.9625 11.9689 12.8382 12.1849 12.6173C12.4008 12.3963 12.5228 12.0967 12.5229 11.7843ZM18.2842 9.72179C18.1132 9.72177 17.9461 9.7736 17.804 9.87071C17.6619 9.96782 17.5511 10.1059 17.4857 10.2674C17.4202 10.4289 17.4031 10.6066 17.4364 10.7781C17.4698 10.9495 17.5521 11.107 17.673 11.2306C17.7938 11.3543 17.9478 11.4384 18.1154 11.4725C18.2831 11.5067 18.4569 11.4892 18.6148 11.4223C18.7727 11.3554 18.9077 11.2421 19.0027 11.0967C19.0976 10.9514 19.1483 10.7805 19.1483 10.6057C19.1484 10.4896 19.1261 10.3747 19.0827 10.2675C19.0393 10.1603 18.9757 10.0628 18.8955 9.98077C18.8153 9.89869 18.7201 9.83358 18.6153 9.78914C18.5105 9.7447 18.3976 9.72182 18.2842 9.72179ZM21.7409 10.6057C21.7433 12.4794 21.2579 14.3199 20.3344 15.9382C20.2315 16.1114 20.0861 16.2541 19.9127 16.3523C19.7393 16.4505 19.5439 16.5008 19.3457 16.4981H3.39419C3.19612 16.5007 3.00082 16.4504 2.82755 16.3522C2.65427 16.2541 2.50901 16.1114 2.40609 15.9383C1.60562 14.5308 1.13276 12.9538 1.02416 11.3293C0.915553 9.70487 1.17412 8.07666 1.77982 6.57085C2.38551 5.06505 3.32208 3.72209 4.51694 2.64605C5.7118 1.57001 7.13286 0.789779 8.67001 0.365823C10.2072 -0.0581323 11.8191 -0.11443 13.381 0.201294C14.9428 0.517017 16.4126 1.19628 17.6764 2.18645C18.9403 3.17662 19.9643 4.45111 20.669 5.91115C21.3737 7.37119 21.7409 8.97742 21.7409 10.6057ZM20.5887 10.6057C20.5885 9.15846 20.2626 7.73073 19.6361 6.43308C19.0096 5.13543 18.0995 4.0027 16.9761 3.12265C15.8528 2.24261 14.5464 1.63887 13.1583 1.35822C11.7701 1.07757 10.3374 1.12755 8.97111 1.50427C7.60485 1.88099 6.34174 2.57435 5.27963 3.53062C4.21753 4.48689 3.38494 5.68041 2.84639 7.01869C2.30783 8.35698 2.07776 9.80411 2.174 11.248C2.27024 12.6918 2.69021 14.0936 3.40137 15.3448L19.3457 15.3198C20.1618 13.8892 20.5913 12.2619 20.5887 10.6057Z" fill="white"/>
</g>
<defs>
<clipPath id="clip0_51_817">
<rect width="22" height="16.4982" fill="white"/>
</clipPath>
</defs>
</svg>
