<svg width="120" height="40" viewBox="0 0 120 40" fill="none" xmlns="http://www.w3.org/2000/svg">
<path d="M20.5911 27.0186C16.7969 27.0186 13.6979 23.9217 13.6979 20.1129C13.6979 16.3122 16.7969 13.2155 20.5911 13.2155C21.3919 13.2155 22.1853 13.3602 22.9245 13.6306V0.222074C21.9579 0.0768484 20.9698 0 19.9629 0C8.93734 0 0 8.95438 0 20C0 31.0456 8.93764 40 19.9629 40C20.9698 40 21.9576 39.9225 22.9245 39.7773V26.612C22.1853 26.8834 21.3919 27.0186 20.5911 27.0186Z" fill="#52BD92"/>
<path d="M24.7263 0.82959V16.989L23.3383 16.0858C22.5178 15.5537 21.5635 15.2735 20.5908 15.2735C17.7881 15.2735 15.499 17.5578 15.499 20.3652C15.499 23.1819 17.7881 25.465 20.5908 25.465C21.5635 25.465 22.5178 25.1854 23.3383 24.6529L24.7263 23.7595V39.6744C33.4498 37.5336 39.9247 29.6523 39.9247 20.252C39.9247 10.8517 33.4498 2.97046 24.7263 0.82959Z" fill="#BEEAD8"/>
<path d="M59.8386 28.4905C59.883 28.4905 59.9274 28.4987 59.9721 28.5157C60.0161 28.5324 60.0587 28.5613 60.1001 28.6021L60.8455 29.3882C60.5193 29.8155 60.1105 30.138 59.6192 30.3552C59.1276 30.5723 58.5464 30.6813 57.875 30.6813C57.259 30.6813 56.7075 30.5764 56.2195 30.3663C55.7316 30.1561 55.318 29.8663 54.9787 29.4968C54.6391 29.1269 54.3787 28.6884 54.1971 28.1814C54.0154 27.6744 53.9248 27.1233 53.9248 26.5288C53.9248 25.9232 54.028 25.3665 54.2363 24.8595C54.4438 24.3521 54.7342 23.9148 55.1071 23.5467C55.48 23.1791 55.9258 22.8929 56.4452 22.6883C56.9642 22.4841 57.5372 22.3818 58.1639 22.3818C58.468 22.3818 58.7547 22.4089 59.0236 22.4626C59.2926 22.5167 59.5437 22.5909 59.7772 22.6858C60.011 22.7803 60.2259 22.894 60.4227 23.0256C60.6191 23.1576 60.7937 23.3036 60.9454 23.463L60.3114 24.3158C60.2707 24.368 60.2222 24.4151 60.1663 24.4577C60.1108 24.5007 60.0332 24.5218 59.9329 24.5218C59.8659 24.5218 59.8027 24.507 59.7435 24.477C59.6843 24.4473 59.6211 24.411 59.5541 24.3684C59.4875 24.3258 59.4139 24.2795 59.3344 24.229C59.2544 24.179 59.1601 24.1327 59.0502 24.0897C58.9411 24.0471 58.8131 24.0107 58.6666 23.9811C58.5201 23.9514 58.3489 23.9363 58.152 23.9363C57.8106 23.9363 57.4987 23.9967 57.2172 24.1175C56.9353 24.2383 56.6934 24.411 56.491 24.636C56.2891 24.861 56.1311 25.133 56.0186 25.4525C55.9051 25.772 55.8488 26.1307 55.8488 26.5284C55.8488 26.9446 55.9051 27.3142 56.0186 27.6377C56.1315 27.9609 56.2857 28.2333 56.4803 28.4542C56.6749 28.6755 56.9024 28.8434 57.1617 28.9586C57.4214 29.0739 57.6996 29.1313 57.9963 29.1313C58.1668 29.1313 58.323 29.1232 58.4639 29.1065C58.6048 29.0898 58.7354 29.0609 58.8564 29.0202C58.9766 28.9794 59.092 28.9264 59.2012 28.8615C59.3107 28.7967 59.4209 28.7155 59.5323 28.6191C59.577 28.5821 59.6255 28.5513 59.6773 28.5269C59.7291 28.5028 59.7831 28.4905 59.8386 28.4905Z" fill="white"/>
<path d="M71.8498 26.5283C71.8498 27.1154 71.7488 27.6617 71.5468 28.1669C71.3448 28.6724 71.0603 29.1116 70.6926 29.4852C70.3257 29.8588 69.8832 30.1512 69.3657 30.3632C68.8485 30.5752 68.2744 30.6808 67.644 30.6808C67.0133 30.6808 66.4384 30.5748 65.9194 30.3632C65.4 30.1516 64.9561 29.8588 64.5869 29.4852C64.2177 29.112 63.9321 28.6724 63.7301 28.1669C63.5277 27.6617 63.4268 27.1154 63.4268 26.5283C63.4268 25.9412 63.5277 25.3949 63.7301 24.8894C63.9325 24.3842 64.2177 23.9458 64.5869 23.574C64.9557 23.2027 65.3996 22.9106 65.9194 22.699C66.4384 22.487 67.0133 22.3813 67.644 22.3813C68.2744 22.3813 68.8485 22.4885 69.3657 22.7019C69.8829 22.9158 70.3257 23.2082 70.6926 23.58C71.06 23.9517 71.3448 24.3902 71.5468 24.8953C71.7488 25.4009 71.8498 25.9449 71.8498 26.5283ZM69.925 26.5283C69.925 26.1269 69.8729 25.7656 69.7693 25.4442C69.6653 25.1229 69.5159 24.8505 69.3213 24.6277C69.1267 24.405 68.8881 24.2337 68.6062 24.1148C68.3243 23.9958 68.0036 23.9365 67.6436 23.9365C67.2804 23.9365 66.9567 23.9962 66.6726 24.1148C66.3888 24.2337 66.1498 24.4046 65.9553 24.6277C65.7607 24.8508 65.6112 25.1229 65.5073 25.4442C65.4033 25.7656 65.3515 26.1269 65.3515 26.5283C65.3515 26.9334 65.4033 27.2966 65.5073 27.618C65.6112 27.9393 65.7607 28.2117 65.9553 28.4344C66.1498 28.6572 66.3892 28.8277 66.6726 28.9444C66.9567 29.0612 67.2804 29.1201 67.6436 29.1201C68.0036 29.1201 68.3243 29.0615 68.6062 28.9444C68.8881 28.8273 69.1263 28.6572 69.3213 28.4344C69.5162 28.2117 69.6653 27.9393 69.7693 27.618C69.8729 27.2966 69.925 26.9334 69.925 26.5283Z" fill="white"/>
<path d="M76.0949 22.4818C76.1504 22.4892 76.2011 22.5033 76.2451 22.5237C76.2899 22.5441 76.3324 22.573 76.3731 22.6101C76.4142 22.6475 76.4604 22.6975 76.5126 22.7605L80.3621 27.6376C80.3477 27.4816 80.3362 27.33 80.3288 27.1832C80.3214 27.0365 80.3181 26.8979 80.3181 26.7678V22.4707H81.9754V30.5919H80.9966C80.8519 30.5919 80.7291 30.5697 80.6296 30.5248C80.5293 30.4803 80.4331 30.3988 80.3399 30.2795L76.5174 25.4417C76.5289 25.5829 76.5385 25.7211 76.5455 25.8568C76.5529 25.9924 76.5562 26.1195 76.5562 26.2385V30.5919H74.8989V22.4707H75.8889C75.9706 22.4707 76.0391 22.4744 76.0949 22.4818Z" fill="white"/>
<path d="M86.6549 22.4818C86.7104 22.4892 86.7603 22.5033 86.8051 22.5237C86.8491 22.5441 86.8916 22.573 86.9331 22.6101C86.9734 22.6475 87.0196 22.6975 87.0718 22.7605L90.9221 27.6376C90.9069 27.4816 90.8962 27.33 90.8888 27.1832C90.881 27.0365 90.8773 26.8979 90.8773 26.7678V22.4707H92.5353V30.5919H91.5565C91.4111 30.5919 91.289 30.5697 91.1888 30.5248C91.0889 30.4803 90.9923 30.3988 90.8999 30.2795L87.0777 25.4413C87.0884 25.5825 87.098 25.7207 87.1051 25.8564C87.1128 25.992 87.1165 26.1192 87.1165 26.2381V30.5915H85.4585V22.4707H86.4492C86.5306 22.4707 86.599 22.4744 86.6549 22.4818Z" fill="white"/>
<path d="M101.237 22.4707V23.9199H97.9095V25.8149H100.458V27.2084H97.9095V29.1427H101.237V30.5919H96.0181V22.4707H101.237Z" fill="white"/>
<path d="M109.899 28.4905C109.943 28.4905 109.988 28.4987 110.032 28.5157C110.077 28.5324 110.119 28.5613 110.161 28.6021L110.906 29.3882C110.58 29.8155 110.171 30.138 109.679 30.3552C109.188 30.5723 108.607 30.6813 107.936 30.6813C107.319 30.6813 106.768 30.5764 106.28 30.3663C105.792 30.1561 105.378 29.8663 105.04 29.4968C104.7 29.1269 104.439 28.6884 104.258 28.1814C104.076 27.674 103.985 27.1233 103.985 26.5288C103.985 25.9232 104.089 25.3665 104.297 24.8595C104.505 24.3521 104.795 23.9148 105.168 23.5467C105.541 23.1791 105.987 22.8929 106.506 22.6883C107.025 22.4841 107.598 22.3818 108.225 22.3818C108.529 22.3818 108.815 22.4089 109.084 22.4626C109.353 22.5167 109.605 22.5909 109.838 22.6858C110.071 22.7803 110.287 22.894 110.483 23.0256C110.68 23.1572 110.854 23.3036 111.006 23.463L110.372 24.3158C110.331 24.368 110.283 24.4151 110.227 24.4577C110.172 24.5007 110.094 24.5218 109.994 24.5218C109.926 24.5218 109.863 24.507 109.804 24.477C109.745 24.4473 109.681 24.411 109.615 24.3684C109.548 24.3258 109.475 24.2795 109.395 24.229C109.315 24.179 109.22 24.1327 109.111 24.0897C109.002 24.0471 108.873 24.0107 108.727 23.9811C108.581 23.9514 108.41 23.9363 108.213 23.9363C107.871 23.9363 107.56 23.9967 107.278 24.1175C106.996 24.2383 106.754 24.411 106.552 24.636C106.349 24.861 106.192 25.133 106.079 25.4525C105.966 25.772 105.91 26.1307 105.91 26.5284C105.91 26.9446 105.966 27.3142 106.079 27.6377C106.192 27.9609 106.346 28.2333 106.541 28.4542C106.735 28.6755 106.963 28.8434 107.223 28.9586C107.482 29.0739 107.76 29.1313 108.057 29.1313C108.228 29.1313 108.384 29.1232 108.525 29.1065C108.666 29.0898 108.796 29.0609 108.917 29.0202C109.037 28.9794 109.152 28.9264 109.262 28.8615C109.371 28.7967 109.482 28.7155 109.593 28.6191C109.638 28.5821 109.686 28.5513 109.738 28.5269C109.79 28.5028 109.844 28.4905 109.899 28.4905Z" fill="white"/>
<path d="M119.796 22.4707V23.9643H117.515V30.5919H115.635V23.9643H113.354V22.4707H119.796Z" fill="white"/>
<path d="M60.1146 15.9942C60.0939 16.0057 60.0728 16.0205 60.044 16.0435C59.8934 16.1836 59.738 16.3082 59.5827 16.4134C59.4295 16.5172 59.2612 16.6058 59.0821 16.6773C58.9038 16.7488 58.7052 16.8033 58.4917 16.8393C58.2779 16.8756 58.0293 16.8937 57.7533 16.8937C57.319 16.8937 56.911 16.8148 56.5403 16.6588C56.17 16.5027 55.8445 16.2759 55.5733 15.9842C55.3014 15.6914 55.085 15.3278 54.9307 14.9035C54.7761 14.478 54.6973 13.9858 54.6973 13.4413C54.6973 12.9121 54.7769 12.4292 54.9337 12.0052C55.0898 11.5826 55.3107 11.2179 55.5896 10.9218C55.8689 10.6261 56.2063 10.3955 56.5929 10.2358C56.9802 10.0757 57.4119 9.99487 57.8762 9.99487C58.1288 9.99487 58.3567 10.0141 58.5543 10.0519C58.7518 10.0898 58.9286 10.1368 59.0792 10.1924C59.229 10.248 59.3592 10.3092 59.4665 10.3744C59.5779 10.4419 59.6718 10.5034 59.7502 10.5597C59.8294 10.6168 59.8945 10.6646 59.9463 10.7035C60.0162 10.7561 60.0747 10.7806 60.1294 10.7806C60.2478 10.7806 60.3122 10.722 60.3447 10.6735L60.5634 10.3555L60.5027 10.301C60.3266 10.1435 60.1431 10.0019 59.9574 9.87998C59.7717 9.75841 59.5701 9.65538 59.3589 9.5731C59.1487 9.49156 58.9194 9.42781 58.6767 9.38445C58.4351 9.34108 58.1658 9.31885 57.8762 9.31885C57.2957 9.31885 56.7567 9.41966 56.2751 9.61869C55.7919 9.81771 55.3717 10.1027 55.0247 10.4652C54.6777 10.828 54.4054 11.2672 54.2153 11.7702C54.0244 12.2731 53.9282 12.8357 53.9282 13.4417C53.9282 14.0592 54.0218 14.6285 54.2068 15.1347C54.3917 15.6418 54.6537 16.0806 54.9851 16.4397C55.317 16.7989 55.7209 17.0802 56.1856 17.2759C56.6491 17.4712 57.1655 17.5701 57.7204 17.5701C58.0511 17.5701 58.3597 17.5423 58.6367 17.4875C58.9142 17.433 59.1731 17.3541 59.4066 17.2533C59.6389 17.1532 59.8572 17.0298 60.0558 16.8867C60.2519 16.7451 60.4361 16.5824 60.6029 16.4041L60.6618 16.3411L60.3777 16.0354C60.3085 15.9649 60.1975 15.9494 60.1146 15.9942Z" fill="white"/>
<path d="M70.5404 14.378C70.5404 14.7345 70.4868 15.0703 70.381 15.3761C70.2763 15.6807 70.1228 15.9483 69.9241 16.1722C69.7262 16.3953 69.4813 16.5724 69.1964 16.6981C68.9112 16.8241 68.582 16.8882 68.2183 16.8882C67.8547 16.8882 67.5258 16.8234 67.2402 16.6955C66.9554 16.568 66.7116 16.3901 66.5152 16.167C66.3183 15.9431 66.1656 15.6748 66.0605 15.3701C65.9547 15.0644 65.9011 14.7286 65.9011 14.372V9.4082H65.1431V14.378C65.1431 14.8223 65.2141 15.2426 65.3539 15.6277C65.4949 16.0143 65.7006 16.3567 65.9654 16.6455C66.231 16.9345 66.5581 17.1643 66.9373 17.3282C67.3161 17.4923 67.747 17.5754 68.2176 17.5754C68.6881 17.5754 69.1188 17.492 69.4976 17.3282C69.8764 17.1643 70.2034 16.9345 70.469 16.6455C70.7339 16.3579 70.9392 16.0154 71.0805 15.6277C71.2207 15.2423 71.2917 14.8216 71.2917 14.378V9.4082H70.5393V14.378H70.5404Z" fill="white"/>
<path d="M79.3238 13.8166C79.5935 13.7721 79.8421 13.6998 80.0663 13.6013C80.35 13.4767 80.596 13.3148 80.7969 13.1205C81.0011 12.9245 81.1591 12.6936 81.2663 12.4345C81.3747 12.1751 81.4295 11.8856 81.4295 11.5735C81.4295 10.8671 81.1909 10.3223 80.7207 9.95353C80.2572 9.59106 79.5532 9.40723 78.6276 9.40723H76.5264V17.4795H77.2792V13.9122H78.2155C78.3875 13.9122 78.4722 13.9348 78.5137 13.9537C78.5721 13.9808 78.6291 14.0297 78.6827 14.0997L81.2027 17.2994C81.253 17.3628 81.3033 17.4072 81.3577 17.4354C81.4132 17.4647 81.4794 17.4795 81.5534 17.4795H82.2407L79.4126 13.9193C79.3848 13.8829 79.3549 13.8485 79.3238 13.8166ZM77.2792 10.0447H78.6276C79.3046 10.0447 79.8254 10.1755 80.1754 10.4335C80.5209 10.6885 80.6885 11.0728 80.6885 11.6073C80.6885 11.8682 80.6408 12.1047 80.5464 12.31C80.4525 12.5157 80.3141 12.694 80.1358 12.8396C79.9545 12.9875 79.7293 13.1028 79.4659 13.1824C79.1999 13.2629 78.8936 13.304 78.5555 13.304H77.2796V10.0447H77.2792Z" fill="white"/>
<path d="M86.3628 17.4805H91.2648V16.8215H87.1204V13.7182H90.5701V13.07H87.1204V10.0672H91.2648V9.4082H86.3628V17.4805Z" fill="white"/>
<path d="M98.0882 9.40809L94.791 17.4804H95.3629C95.4354 17.4804 95.4998 17.4585 95.5549 17.4151C95.6056 17.374 95.6411 17.3243 95.6596 17.2717L96.5608 15.0387H100.302L101.208 17.2728C101.233 17.331 101.267 17.3792 101.312 17.4166C101.363 17.4585 101.425 17.48 101.499 17.48H102.077L98.78 9.40771L98.0882 9.40809ZM98.3642 10.5767C98.3875 10.5166 98.4112 10.4518 98.4338 10.3821C98.4571 10.4521 98.4807 10.5159 98.5041 10.5722L100.06 14.4305H96.8072L98.3642 10.5767Z" fill="white"/>
<path d="M104.46 10.0783H107.242V17.4805H107.994V10.0783H110.76V9.4082H104.46V10.0783Z" fill="white"/>
<path d="M119.822 10.0672V9.4082H114.92V17.4805H119.822V16.8215H115.678V13.7182H119.127V13.07H115.678V10.0672H119.822Z" fill="white"/>
</svg>
