<svg width="15" height="18" viewBox="0 0 15 18" fill="none" xmlns="http://www.w3.org/2000/svg">
<g clip-path="url(#clip0_51_880)">
<path d="M9.80773 9.5628H4.03717C3.08185 9.56412 2.30785 10.3187 2.3065 11.25V13.5C2.30785 14.4313 3.08185 15.1859 4.03717 15.1872H9.8065C10.7623 15.1872 11.5372 14.4318 11.5372 13.5V11.25C11.5372 10.3187 10.763 9.56352 9.80773 9.5628ZM10.385 13.5C10.385 13.8108 10.1265 14.0628 9.80773 14.0628H4.03717C3.71836 14.0628 3.45987 13.8108 3.45987 13.5V11.25C3.45987 10.9392 3.71836 10.6872 4.03717 10.6872H9.80773C10.1265 10.6872 10.385 10.9392 10.385 11.25V13.5ZM15.001 4.7808C15.0117 3.38904 13.8631 2.2524 12.4356 2.24184C11.3901 2.23416 10.4428 2.84124 10.0354 3.78C9.89045 3.5892 9.81117 3.35856 9.80896 3.1212V1.1256H10.097C10.256 1.1256 10.385 0.99984 10.385 0.8448V0.2808C10.385 0.12576 10.256 0 10.097 0C10.0966 0 10.0961 0 10.0958 0H3.74544C3.58641 0 3.45741 0.12576 3.45741 0.2808V0.84C3.45741 0.99504 3.58641 1.1208 3.74544 1.1208H4.03348V3.12C4.03372 3.37548 3.94473 3.62352 3.78114 3.8232L1.01034 7.2C0.355856 7.9986 -0.000125944 8.99064 0.000981884 10.0128V15.7452C-0.00172614 16.9878 1.02942 17.9974 2.30403 18C2.30527 18 2.3065 18 2.30773 18H11.5396C12.8143 18 13.8476 16.9926 13.8476 15.75V10.0164C13.8455 9.02016 13.5044 8.05284 12.8776 7.266C14.1075 7.04496 15.0004 5.99988 15.001 4.7808ZM12.693 15.75C12.6937 16.371 12.1779 16.8749 11.5409 16.8756C11.54 16.8756 11.5393 16.8756 11.5384 16.8756H2.3065C1.66949 16.8756 1.15312 16.3722 1.15312 15.7512V10.0164C1.15349 9.24996 1.42036 8.50632 1.91014 7.9068L4.6871 4.5264C5.01366 4.1268 5.19165 3.63096 5.19177 3.12V1.1244H8.65436V3.12C8.65448 3.63096 8.83247 4.1268 9.15903 4.5264L11.9335 7.908C12.4234 8.50752 12.6903 9.25116 12.6905 10.0176L12.693 15.75ZM12.405 6.1872C12.2393 6.18336 12.0756 6.15132 11.9212 6.0924L11.0017 4.9716C10.9837 4.90908 10.9706 4.84524 10.9623 4.7808C10.9623 4.00404 11.6082 3.3744 12.405 3.3744C13.2017 3.3744 13.8476 4.00404 13.8476 4.7808C13.8476 5.55756 13.2017 6.1872 12.405 6.1872Z" fill="white"/>
</g>
<defs>
<clipPath id="clip0_51_880">
<rect width="15" height="18" fill="white"/>
</clipPath>
</defs>
</svg>
