<svg width="15" height="20" viewBox="0 0 15 20" fill="none" xmlns="http://www.w3.org/2000/svg">
<path d="M8.50016 12.7502L6.75016 12.2502C6.5835 12.1668 6.41683 12.0002 6.41683 11.7502C6.41683 11.5002 6.5835 11.2502 6.8335 11.2502H7.91683C8.0835 11.2502 8.25016 11.3335 8.41683 11.4168C8.5835 11.5002 8.66683 11.5002 8.8335 11.4168L9.25016 11.0002C9.41683 10.8335 9.41683 10.6668 9.25016 10.5002C8.91683 10.2502 8.50016 10.0835 8.00016 10.0835V9.16683C8.00016 9.00016 7.8335 8.8335 7.66683 8.8335H7.0835C6.91683 8.8335 6.75016 9.00016 6.75016 9.16683V10.0002C5.8335 10.0002 5.0835 10.8335 5.0835 11.7502C5.0835 12.5002 5.5835 13.2502 6.3335 13.4168L8.0835 13.9168C8.25016 14.0002 8.41683 14.1668 8.41683 14.4168C8.41683 14.6668 8.25016 14.9168 8.00016 14.9168H6.91683C6.75016 14.9168 6.5835 14.8335 6.41683 14.7502C6.25016 14.6668 6.16683 14.6668 6.00016 14.7502L5.5835 15.1668C5.41683 15.3335 5.41683 15.5002 5.5835 15.6668C5.91683 15.9168 6.3335 16.0835 6.8335 16.0835V17.0002C6.8335 17.1668 7.00016 17.3335 7.16683 17.3335H7.75016C7.91683 17.3335 8.0835 17.1668 8.0835 17.0002V16.0835C9.00016 16.0835 9.75016 15.2502 9.75016 14.3335C9.66683 13.6668 9.16683 13.0002 8.50016 12.7502Z" fill="white"/>
<path d="M2.74984 3.75H7.08317C7.24984 3.75 7.4165 3.58333 7.4165 3.41667V2.83333C7.4165 2.66667 7.24984 2.5 7.08317 2.5H2.74984C2.58317 2.58333 2.4165 2.66667 2.4165 2.83333V3.41667C2.4165 3.66667 2.58317 3.75 2.74984 3.75Z" fill="white"/>
<path d="M7.4165 6V5.33333C7.4165 5.16667 7.24984 5 7.08317 5H2.74984C2.58317 5 2.4165 5.16667 2.4165 5.33333V5.91667C2.4165 6.08333 2.58317 6.25 2.74984 6.25H7.08317C7.24984 6.25 7.4165 6.16667 7.4165 6Z" fill="white"/>
<path d="M14.3333 3.83333L11.0833 0.583333C10.75 0.25 10.25 0 9.75 0H1.83333C0.833334 0 0 0.833333 0 1.83333V18C0 19 0.833334 19.8333 1.83333 19.8333H13C14 19.8333 14.8333 19 14.8333 18V5.16667C14.8333 4.66667 14.6667 4.25 14.3333 3.83333ZM9.91667 1.33333C10 1.33333 10.0833 1.41667 10.1667 1.5L13.4167 4.75C13.5 4.83333 13.5833 4.91667 13.5833 5H9.91667V1.33333ZM13.6667 18.0833C13.6667 18.4167 13.4167 18.6667 13.0833 18.6667H1.83333C1.5 18.6667 1.25 18.4167 1.25 18.0833V1.91667C1.25 1.58333 1.5 1.33333 1.83333 1.33333H8.66667V5.33333C8.66667 5.83333 9.08333 6.25 9.58333 6.25H13.5833V18.0833H13.6667Z" fill="white"/>
</svg>
