<svg width="21" height="17" viewBox="0 0 21 17" fill="none" xmlns="http://www.w3.org/2000/svg">
<g clip-path="url(#clip0_51_823)">
<path d="M15.204 9.20817C15.8567 9.20817 16.4947 9.01233 17.0374 8.6454C17.5801 8.27847 18.003 7.75695 18.2528 7.14677C18.5026 6.53659 18.5679 5.86517 18.4406 5.21741C18.3133 4.56965 17.999 3.97465 17.5375 3.50764C17.076 3.04063 16.4879 2.72259 15.8478 2.59374C15.2077 2.4649 14.5441 2.53103 13.9411 2.78377C13.3382 3.03651 12.8228 3.46452 12.4601 4.01366C12.0975 4.56281 11.904 5.20843 11.904 5.86888C11.9042 6.75444 12.252 7.60368 12.8708 8.22987C13.4896 8.85606 14.3289 9.20795 15.204 9.20817ZM15.204 3.64273C15.6391 3.64273 16.0645 3.77329 16.4263 4.01792C16.7881 4.26254 17.0701 4.61023 17.2366 5.01703C17.4031 5.42382 17.4467 5.87144 17.3618 6.30329C17.2769 6.73513 17.0673 7.13181 16.7596 7.44315C16.452 7.75449 16.0599 7.96651 15.6332 8.0524C15.2064 8.13829 14.764 8.0942 14.362 7.92569C13.96 7.75718 13.6164 7.47183 13.3747 7.10572C13.133 6.73961 13.004 6.30918 13.004 5.86888C13.0045 5.27861 13.2365 4.71268 13.6489 4.29531C14.0614 3.87793 14.6207 3.64323 15.204 3.64273ZM6.60003 9.20817C7.36149 9.20817 8.10584 8.97969 8.73897 8.55161C9.3721 8.12353 9.86557 7.51508 10.157 6.80321C10.4484 6.09134 10.5246 5.30802 10.376 4.5523C10.2275 3.79658 9.86082 3.10241 9.32239 2.55757C8.78396 2.01273 8.09795 1.64168 7.35112 1.49136C6.6043 1.34104 5.83019 1.41819 5.1267 1.71306C4.4232 2.00792 3.82191 2.50726 3.39887 3.14793C2.97582 3.7886 2.75003 4.54182 2.75003 5.31234C2.74978 5.82402 2.84919 6.33073 3.04258 6.80351C3.23598 7.27629 3.51956 7.70586 3.87711 8.06767C4.23467 8.42948 4.65919 8.71644 5.1264 8.91213C5.59362 9.10783 6.09437 9.20842 6.60003 9.20817ZM6.60003 2.52958C7.14393 2.52958 7.67562 2.69279 8.12786 2.99856C8.58009 3.30433 8.93257 3.73894 9.14071 4.24742C9.34886 4.75591 9.40332 5.31543 9.29721 5.85523C9.1911 6.39503 8.92918 6.89087 8.54458 7.28005C8.15999 7.66922 7.66998 7.93425 7.13653 8.04163C6.60308 8.149 6.05014 8.09389 5.54764 7.88327C5.04514 7.67265 4.61564 7.31598 4.31347 6.85836C4.01129 6.40073 3.85001 5.86272 3.85001 5.31234C3.85097 4.5746 4.14101 3.86737 4.65653 3.34571C5.17205 2.82405 5.87097 2.53056 6.60003 2.52958ZM9.35348 9.90383C8.20548 9.90383 7.92002 10.3212 6.60003 10.3212C5.28004 10.3212 4.99472 9.90383 3.84658 9.90383C3.22612 9.89202 2.61231 10.0346 2.05907 10.3191C1.50584 10.6036 1.03013 11.0212 0.673756 11.5353C0.233264 12.1959 -0.00141873 12.975 6.45279e-06 13.7719V15.3302C0.000117793 15.773 0.173989 16.1976 0.483394 16.5107C0.7928 16.8238 1.21241 16.9997 1.64998 16.9998H11.55C11.9876 16.9997 12.4072 16.8238 12.7166 16.5107C13.026 16.1976 13.1999 15.773 13.2 15.3302V13.7719C13.2014 12.975 12.9668 12.1959 12.5262 11.5353C12.1699 11.0212 11.6942 10.6036 11.1409 10.3191C10.5877 10.0346 9.97392 9.89203 9.35348 9.90383ZM12.1 15.3302C12.0996 15.4777 12.0415 15.619 11.9384 15.7233C11.8354 15.8275 11.6957 15.8863 11.55 15.8868H1.64998C1.50425 15.8863 1.36461 15.8275 1.26156 15.7233C1.15852 15.619 1.10043 15.4777 1.09999 15.3302V13.7719C1.09936 13.1971 1.2681 12.6352 1.58467 12.1579C1.84018 11.7953 2.17968 11.5017 2.57341 11.3028C2.96714 11.1039 3.40307 11.0057 3.84301 11.017C4.78486 11.017 5.12177 11.4344 6.59989 11.4344C8.07801 11.4344 8.41485 11.017 9.35334 11.017C9.79328 11.0057 10.2292 11.1039 10.623 11.3028C11.0167 11.5017 11.3562 11.7953 11.6117 12.1579C11.9283 12.6351 12.0971 13.1971 12.0964 13.7719V15.3302H12.1ZM20.44 11.3332C20.143 10.9049 19.7466 10.557 19.2857 10.3199C18.8248 10.0828 18.3135 9.96371 17.7965 9.97317C16.8409 9.97317 16.6003 10.321 15.5005 10.321C14.4008 10.321 14.1599 9.97317 13.2045 9.97317C12.8332 9.96235 12.4648 10.0441 12.1321 10.2112C12.4717 10.437 12.756 10.738 12.9636 11.0915C13.1513 11.0893 12.9879 11.0897 13.2045 11.0897C13.9535 11.0897 14.2358 11.4376 15.5005 11.4376C16.7653 11.4376 17.0475 11.0897 17.7965 11.0897C18.1336 11.0801 18.4678 11.1543 18.7699 11.306C19.072 11.4576 19.3327 11.6819 19.529 11.9593C19.7738 12.3261 19.9043 12.7586 19.9037 13.2011V14.4951C19.9035 14.5688 19.8745 14.6395 19.8229 14.6916C19.7714 14.7438 19.7016 14.7731 19.6287 14.7733H13.9433C13.9661 15.1453 13.9476 15.5187 13.8883 15.8865H19.6253C19.8058 15.8865 19.9846 15.8505 20.1514 15.7806C20.3182 15.7107 20.4697 15.6083 20.5974 15.4791C20.7251 15.3499 20.8263 15.1965 20.8954 15.0278C20.9645 14.859 21 14.6781 21 14.4954V13.1979C21.0017 12.5337 20.8066 11.8842 20.44 11.3332Z" fill="white"/>
</g>
<defs>
<clipPath id="clip0_51_823">
<rect width="21" height="17" fill="white"/>
</clipPath>
</defs>
</svg>
