<svg width="18" height="18" viewBox="0 0 18 18" fill="none" xmlns="http://www.w3.org/2000/svg">
<g clip-path="url(#clip0_51_826)">
<mask id="mask0_51_826" style="mask-type:luminance" maskUnits="userSpaceOnUse" x="0" y="0" width="18" height="18">
<path d="M17.7751 0.450195H0.225098V18.0002H17.7751V0.450195Z" fill="white"/>
</mask>
<g mask="url(#mask0_51_826)">
<path d="M16.6783 7.30563H9.54847V1.54698H14.3956C14.5106 1.54701 14.6227 1.58305 14.7161 1.65003C14.8096 1.71702 14.8797 1.8116 14.9167 1.92048L16.651 7.1237C16.669 7.18032 16.6782 7.23934 16.6784 7.29875L16.6783 7.30563ZM16.6783 16.3547C16.6779 16.5 16.6199 16.6393 16.5171 16.7421C16.4144 16.8449 16.2751 16.9028 16.1297 16.9032H1.87057C1.72519 16.9029 1.58586 16.845 1.48306 16.7422C1.38027 16.6394 1.32236 16.5001 1.32202 16.3547V8.40273H16.6783V16.3547ZM1.32202 7.29888C1.32277 7.23952 1.33202 7.18057 1.34947 7.12383L3.08377 1.92048C3.12067 1.81156 3.19079 1.71695 3.28427 1.64995C3.37774 1.58295 3.48986 1.54694 3.60487 1.54698H8.45182V7.30563H1.32202V7.29888ZM17.6894 6.77778L15.9551 1.57443C15.8465 1.2468 15.6373 0.961775 15.3573 0.759928C15.0773 0.55808 14.7408 0.449695 14.3956 0.450197H3.60487C3.25969 0.449661 2.92313 0.558015 2.6431 0.759837C2.36307 0.96166 2.15383 1.24667 2.04517 1.5743L0.310868 6.77778C0.254898 6.94585 0.225948 7.12174 0.225098 7.29888V16.3547C0.225241 16.791 0.398647 17.2095 0.7072 17.5181C1.01575 17.8266 1.4342 18 1.87057 18.0002H16.1297C16.5661 18.0001 16.9846 17.8267 17.2932 17.5181C17.6018 17.2095 17.7751 16.791 17.7751 16.3545V7.29888C17.7761 7.12161 17.747 6.94544 17.6894 6.77778Z" fill="white"/>
</g>
<path d="M11.2405 10.6803C10.9147 10.4247 10.5052 10.3 10.0923 10.3306C9.67932 10.3612 9.29269 10.5449 9.00813 10.8458C8.71465 10.5264 8.30631 10.3367 7.87294 10.3184C7.43958 10.3 7.0167 10.4546 6.69732 10.7481C6.37794 11.0416 6.18822 11.45 6.16992 11.8833C6.15161 12.3167 6.3062 12.7396 6.59969 13.0589C6.61886 13.0799 6.63858 13.1003 6.65886 13.1201L8.59346 15.0911C8.70058 15.2011 8.84703 15.2642 9.00062 15.2663C9.15421 15.2684 9.30235 15.2094 9.41246 15.1023L9.42272 15.0921L11.3573 13.1211C11.6665 12.804 11.8371 12.3771 11.8315 11.9342C11.8259 11.4913 11.6447 11.0688 11.3276 10.7596C11.2995 10.7321 11.2705 10.7057 11.2405 10.6803ZM10.9801 12.7484L9.04557 14.7194C9.03881 14.7294 9.02838 14.7362 9.01656 14.7385C9.00475 14.7407 8.99252 14.7382 8.98257 14.7315C8.97784 14.7283 8.97376 14.7242 8.97056 14.7194L7.03596 12.7484C6.82551 12.5323 6.70952 12.2415 6.71351 11.9399C6.7175 11.6382 6.84115 11.3506 7.05725 11.1401C7.07636 11.1215 7.0961 11.1036 7.11647 11.0864C7.33649 10.9141 7.61306 10.8304 7.8917 10.8518C8.17034 10.8732 8.43086 10.9982 8.62194 11.2022L9.008 11.5959L9.39405 11.2021C9.58489 10.9978 9.84534 10.8725 10.124 10.8509C10.4027 10.8292 10.6794 10.9128 10.8995 11.0851C11.1301 11.2816 11.2732 11.5617 11.2973 11.8637C11.3214 12.1657 11.2245 12.4649 11.028 12.6955C11.0126 12.7135 10.9967 12.7312 10.9801 12.7484Z" fill="white" stroke="white" stroke-width="0.5" stroke-miterlimit="10"/>
</g>
<defs>
<clipPath id="clip0_51_826">
<rect width="18" height="18" fill="white"/>
</clipPath>
</defs>
</svg>
