<svg width="22" height="18" viewBox="0 0 22 18" fill="none" xmlns="http://www.w3.org/2000/svg">
<path d="M20.6799 17.0252L17.6732 13.9502C18.2599 13.2002 18.6266 12.3002 18.6266 11.2502C18.6266 8.7752 16.6466 6.8252 14.2999 6.8252C11.9532 6.8252 9.97325 8.8502 9.97325 11.2502C9.97325 13.6502 11.9532 15.6752 14.2999 15.6752C15.3266 15.6752 16.2066 15.3002 16.9399 14.7002L19.9466 17.7752C20.0199 17.8502 20.2399 17.8502 20.3132 17.7752L20.6799 17.4002C20.8266 17.3252 20.8266 17.1002 20.6799 17.0252ZM14.2266 14.5502C12.3932 14.5502 10.9999 13.0502 10.9999 11.2502C10.9999 9.4502 12.4666 7.9502 14.2266 7.9502C15.9866 7.9502 17.4532 9.4502 17.4532 11.2502C17.5266 13.0502 16.0599 14.5502 14.2266 14.5502ZM12.6132 16.8002H2.85992C2.56658 16.8002 2.34658 16.5752 2.34658 16.2752V1.8002C2.34658 1.5002 2.56658 1.2752 2.85992 1.2752H8.79991V4.8752C8.79991 5.3252 9.16658 5.7002 9.60658 5.7002H14.2266V4.7252C14.2266 4.2752 14.0799 3.8252 13.7132 3.5252L10.8532 0.600195C10.5599 0.300195 10.1199 0.0751953 9.67991 0.0751953H2.85992C1.97992 0.0751953 1.24658 0.825195 1.24658 1.7252V16.1252C1.24658 17.0252 1.97992 17.7752 2.85992 17.7752H12.6132C13.2732 17.7752 13.9332 17.3252 14.1532 16.6502C13.7866 16.6502 13.3466 16.5752 12.9799 16.5002C12.9066 16.7252 12.7599 16.8002 12.6132 16.8002ZM9.89991 1.2752C9.97325 1.2752 10.0466 1.3502 10.1199 1.4252L12.9799 4.3502C13.0532 4.4252 13.1266 4.5002 13.1266 4.5752H9.89991V1.2752Z" fill="white"/>
</svg>
