<svg width="13" height="12" viewBox="0 0 13 12" fill="none" xmlns="http://www.w3.org/2000/svg">
<path d="M12.884 2.954C12.8242 2.86538 12.7443 2.79295 12.6513 2.74291C12.5582 2.69287 12.4547 2.66671 12.3497 2.66667H3.46636L2.71628 0.820003C2.61793 0.576817 2.45139 0.369062 2.23778 0.223077C2.02416 0.0770919 1.7731 -0.00054736 1.51641 2.90483e-06H0V1.33334H1.51641L4.59993 8.92334C4.64932 9.04477 4.73264 9.1485 4.8394 9.22146C4.94616 9.29442 5.07158 9.33335 5.19986 9.33334H10.3997C10.6708 9.33334 10.9132 9.16067 11.0088 8.90134L12.9587 3.568C12.9956 3.46708 13.008 3.35851 12.995 3.25157C12.982 3.14463 12.9439 3.04253 12.884 2.954ZM9.94929 8H5.6334L4.00844 4H11.4117L9.94929 8Z" fill="white"/>
<path d="M5.52485 12C6.06332 12 6.49983 11.5523 6.49983 11C6.49983 10.4477 6.06332 10 5.52485 10C4.98639 10 4.54988 10.4477 4.54988 11C4.54988 11.5523 4.98639 12 5.52485 12Z" fill="white"/>
<path d="M10.0747 12C10.6132 12 11.0497 11.5523 11.0497 11C11.0497 10.4477 10.6132 10 10.0747 10C9.53627 10 9.09976 10.4477 9.09976 11C9.09976 11.5523 9.53627 12 10.0747 12Z" fill="white"/>
</svg>
