<svg width="11" height="9" viewBox="0 0 11 9" fill="none" xmlns="http://www.w3.org/2000/svg">
<path d="M0.184093 5.38197C0.0660353 5.25259 0 5.07935 0 4.89901C0 4.71868 0.0660353 4.54544 0.184093 4.41606L0.319435 4.27195C0.441039 4.14636 0.603832 4.07612 0.773289 4.07612C0.942746 4.07612 1.10554 4.14636 1.22714 4.27195L3.58376 6.78004L9.77111 0.19584C9.8931 0.0702265 10.0562 0 10.2259 0C10.3957 0 10.5588 0.0702265 10.6808 0.19584L10.8152 0.339952C10.9337 0.469289 11 0.642774 11 0.823407C11 1.00404 10.9337 1.17753 10.8152 1.30686L3.5847 9L0.184093 5.38197Z" fill="white"/>
</svg>
